# xmcd CD database file
#
# Track frame offsets:
#	150
#	33887
#	73833
#
# Disc length: 1408 seconds
#
# Revision: 0
# Processed by: cddbd v1.5.2PL0 Copyright (c) Steve Scherf et al.
# Submitted via: CDex 1.51
#
DISCID=21057e03
DTITLE=Oláh Szabolcs - sztereó magyar jazz
DYEAR=2005
DGENRE=Jazz
TTITLE0=untold reasons
TTITLE1=last phrase
TTITLE2=drops
EXTD=YEAR: 2005
EXTT0=
EXTT1=
EXTT2=
PLAYORDER=
